<svg width="120" height="40" viewBox="0 0 120 40" fill="none" xmlns="http://www.w3.org/2000/svg">
<path d="M114 0H6C2.68629 0 0 2.68629 0 6V34C0 37.3137 2.68629 40 6 40H114C117.314 40 120 37.3137 120 34V6C120 2.68629 117.314 0 114 0Z" fill="#242424"/>
<path d="M9.08008 7.61072V20.9214V34.2557L22.4718 20.9214L9.08008 7.61072Z" fill="url(#paint0_linear)"/>
<path d="M26.0601 17.3465L20.6659 14.2187L9.08008 7.51636V7.61043L22.4718 20.9211L26.0601 17.3465Z" fill="url(#paint1_linear)"/>
<path d="M9.08008 34.2553V34.3494L20.6659 27.6235L26.0601 24.4957L22.4718 20.9211L9.08008 34.2553Z" fill="url(#paint2_linear)"/>
<path d="M26.06 17.3467L22.4717 20.9213L26.06 24.4959L32.2516 20.9213L26.06 17.3467Z" fill="url(#paint3_linear)"/>
<path d="M93.4409 26.1423C92.9484 26.1423 92.4793 26.0482 92.0571 25.8601C91.635 25.672 91.2832 25.3898 91.0018 24.99H90.9079C90.9548 25.4368 91.0018 25.8601 91.0018 26.2834V29.4817H89.8291V18.2405H90.7907L90.9548 19.2988H91.0018C91.3066 18.8755 91.6584 18.5698 92.0571 18.3816C92.4558 18.1935 92.9249 18.0994 93.4409 18.0994C94.4728 18.0994 95.2468 18.4522 95.8096 19.1577C96.3725 19.8632 96.6539 20.8509 96.6539 22.1209C96.6539 23.3908 96.3725 24.3785 95.8096 25.084C95.2233 25.7896 94.4259 26.1423 93.4409 26.1423ZM93.2532 19.0871C92.4558 19.0871 91.893 19.2988 91.5412 19.7456C91.1894 20.1925 91.0018 20.8745 91.0018 21.8387V22.0973C91.0018 23.1791 91.1894 23.9552 91.5412 24.4255C91.893 24.8959 92.4793 25.1311 93.2767 25.1311C93.9334 25.1311 94.4728 24.8489 94.8481 24.308C95.2233 23.7671 95.4109 23.0145 95.4109 22.0738C95.4109 21.1096 95.2233 20.3571 94.8481 19.8397C94.4728 19.3458 93.9568 19.0871 93.2532 19.0871Z" fill="#F9F9F9"/>
<path d="M99.3514 26.0009H98.1787V14.9949H99.3514V26.0009Z" fill="#F9F9F9"/>
<path d="M106.082 26.0011L105.847 24.8958H105.8C105.425 25.3896 105.026 25.7189 104.651 25.8835C104.276 26.0481 103.783 26.1422 103.22 26.1422C102.446 26.1422 101.86 25.954 101.414 25.5542C100.969 25.1544 100.758 24.59 100.758 23.861C100.758 22.2853 102.001 21.4858 104.51 21.3917L105.824 21.3447V20.8743C105.824 20.2629 105.683 19.816 105.425 19.5338C105.167 19.2516 104.745 19.1105 104.182 19.1105C103.549 19.1105 102.798 19.2987 102.001 19.6985L101.649 18.8048C102.024 18.5931 102.446 18.4285 102.892 18.3109C103.338 18.1934 103.807 18.1228 104.252 18.1228C105.167 18.1228 105.847 18.3345 106.293 18.7343C106.738 19.134 106.949 19.7925 106.949 20.7097V26.0011H106.082ZM103.431 25.1544C104.159 25.1544 104.721 24.9428 105.144 24.543C105.566 24.1432 105.777 23.5788 105.777 22.8498V22.1442L104.604 22.1913C103.666 22.2148 103.009 22.3794 102.587 22.6381C102.165 22.8968 101.977 23.2966 101.977 23.8375C101.977 24.2608 102.095 24.59 102.353 24.8017C102.611 25.0604 102.962 25.1544 103.431 25.1544Z" fill="#F9F9F9"/>
<path d="M107.63 18.2402H108.873L110.562 22.6614C110.937 23.6727 111.171 24.4017 111.242 24.8485H111.289C111.359 24.6134 111.476 24.19 111.664 23.6256C111.851 23.0377 112.508 21.2504 113.587 18.2637H114.853L111.523 27.0827C111.195 27.9528 110.819 28.5642 110.374 28.9405C109.928 29.3168 109.389 29.4814 108.756 29.4814C108.404 29.4814 108.052 29.4344 107.7 29.3638V28.4231C107.958 28.4702 108.24 28.5172 108.568 28.5172C109.365 28.5172 109.952 28.0704 110.28 27.1532L110.702 26.0479L107.63 18.2402Z" fill="#F9F9F9"/>
<path d="M71.7462 18.9692C72.1214 19.2749 72.8954 19.9334 72.8954 21.1563C72.8954 22.3556 72.2152 22.92 71.5351 23.4609C71.324 23.6726 71.0895 23.9078 71.0895 24.2605C71.0895 24.6133 71.324 24.8014 71.5116 24.966L72.098 25.4129C72.8016 26.0243 73.4582 26.5652 73.4582 27.694C73.4582 29.2227 71.9807 30.7513 69.2132 30.7513C66.8679 30.7513 65.7422 29.6224 65.7422 28.4231C65.7422 27.8351 66.0236 27.012 66.9852 26.4476C67.9937 25.8362 69.354 25.7421 70.081 25.6951C69.8465 25.4129 69.5885 25.1071 69.5885 24.5898C69.5885 24.3076 69.6588 24.1429 69.7527 23.9548C69.565 23.9783 69.4009 23.9783 69.2367 23.9783C67.5246 23.9783 66.563 22.7084 66.563 21.4385C66.563 20.6859 66.8914 19.8628 67.595 19.2749C68.5096 18.5223 69.6119 18.3812 70.4797 18.3812H73.81L72.7781 18.9692H71.7462ZM70.597 26.1654C70.4563 26.1419 70.3859 26.1419 70.2217 26.1419C70.081 26.1419 69.2132 26.1654 68.5331 26.4006C68.1813 26.5182 67.1494 26.918 67.1494 28.0703C67.1494 29.2226 68.2751 30.0458 69.9872 30.0458C71.5351 30.0458 72.356 29.2932 72.356 28.3055C72.356 27.4824 71.84 27.0356 70.597 26.1654ZM71.066 23.0847C71.4413 22.7084 71.4647 22.191 71.4647 21.9088C71.4647 20.7329 70.7611 18.9221 69.4243 18.9221C69.0022 18.9221 68.5566 19.1338 68.2986 19.463C68.0171 19.7923 67.9468 20.2391 67.9468 20.6624C67.9468 21.7442 68.58 23.555 69.9637 23.555C70.3859 23.5315 70.8081 23.3434 71.066 23.0847Z" fill="#F9F9F9"/>
<path d="M61.568 25.9068C59.0117 25.9068 57.6279 23.9079 57.6279 22.097C57.6279 19.9805 59.3635 18.1697 61.8026 18.1697C64.1713 18.1697 65.6489 20.0275 65.6489 21.9795C65.6723 23.8844 64.1948 25.9068 61.568 25.9068ZM63.585 24.5899C63.9837 24.0725 64.0775 23.414 64.0775 22.8026C64.0775 21.368 63.3974 18.6635 61.4039 18.6635C60.8645 18.6635 60.3485 18.8752 59.9498 19.2044C59.3166 19.7688 59.1993 20.4744 59.1993 21.1799C59.1993 22.779 59.9967 25.413 61.9433 25.413C62.5765 25.413 63.2098 25.1072 63.585 24.5899Z" fill="#F9F9F9"/>
<path d="M52.82 25.9068C50.2636 25.9068 48.8799 23.9079 48.8799 22.097C48.8799 19.9805 50.6154 18.1697 53.0545 18.1697C55.4233 18.1697 56.9008 20.0275 56.9008 21.9795C56.9243 23.8844 55.4467 25.9068 52.82 25.9068ZM54.837 24.5899C55.2357 24.0725 55.3295 23.414 55.3295 22.8026C55.3295 21.368 54.6493 18.6635 52.6558 18.6635C52.1164 18.6635 51.6004 18.8752 51.2017 19.2044C50.5685 19.7688 50.4512 20.4744 50.4512 21.1799C50.4512 22.779 51.2486 25.413 53.1952 25.413C53.8285 25.413 54.4617 25.1072 54.837 24.5899Z" fill="#F9F9F9"/>
<path d="M47.6598 25.6482L45.3379 26.1891C44.3998 26.3302 43.5555 26.4713 42.6643 26.4713C38.1847 26.4713 36.4727 23.1789 36.4727 20.592C36.4727 17.4407 38.8883 14.501 43.0161 14.501C43.8838 14.501 44.7281 14.6421 45.5021 14.8538C46.7216 15.2066 47.2845 15.6063 47.6363 15.865L46.2995 17.1585L45.7366 17.2996L46.1353 16.6411C45.5724 16.1002 44.5874 15.1125 42.6643 15.1125C40.1079 15.1125 38.1613 17.0644 38.1613 19.91C38.1613 22.9672 40.3659 25.8363 43.9073 25.8363C44.9392 25.8363 45.4786 25.6247 45.9711 25.4365V22.8261L43.532 22.9672L44.8219 22.2617H48.2695L47.8474 22.6615C47.7301 22.7556 47.7067 22.8026 47.6832 22.9202C47.6598 23.0613 47.6598 23.5316 47.6598 23.6963V25.6482Z" fill="#F9F9F9"/>
<path d="M76.8831 25.1779C76.3437 25.1308 76.2265 25.0368 76.2265 24.4018V24.2137V15.1831C76.2265 15.1596 76.2265 15.1125 76.2265 15.089C76.2968 14.5246 76.461 14.4305 76.9535 14.1248H74.6551L73.4355 14.7127H74.6786V24.2137V24.7546C74.6786 25.0838 74.6082 25.1308 74.233 25.6247H77.0942L77.704 25.2719C77.4226 25.2249 77.1646 25.2014 76.8831 25.1779Z" fill="#F9F9F9"/>
<path d="M83.4727 25.3188C83.285 25.4129 83.1209 25.5305 82.9332 25.601C82.3938 25.8362 81.8544 25.9068 81.3619 25.9068C80.8459 25.9068 80.0485 25.8832 79.2277 25.2718C78.0785 24.4722 77.5859 23.0847 77.5859 21.8618C77.5859 19.369 79.6264 18.1226 81.2681 18.1226C81.8544 18.1226 82.4407 18.2637 82.9332 18.5694C83.7306 19.1103 83.9417 19.7923 84.059 20.1686L80.283 21.6972L79.04 21.7912C79.4387 23.8372 80.8225 25.0366 82.3704 25.0366C83.1912 25.0366 83.7775 24.7544 84.3404 24.4722L83.4727 25.3188ZM81.9717 20.5213C82.2766 20.4037 82.4407 20.3097 82.4407 20.0745C82.4407 19.4395 81.7137 18.687 80.8459 18.687C80.1892 18.687 78.9931 19.1808 78.9931 20.9211C78.9931 21.2033 79.0166 21.4855 79.04 21.7677L81.9717 20.5213Z" fill="#F9F9F9"/>
<path d="M85.0443 18.2641V19.3224H84.9036V18.2641H84.5518V18.1465H85.3726V18.2641H85.0443Z" fill="#F9F9F9"/>
<path d="M86.4752 19.3219V18.2401L86.1468 19.3219H86.053L85.7247 18.2401V19.3219H85.6074V18.1461H85.8185L86.1234 19.0867L86.4283 18.1461H86.6394V19.3219H86.4752Z" fill="#F9F9F9"/>
<path d="M39.7101 11.3266H38.9127C38.9127 11.209 38.8424 10.9033 38.6782 10.3859H37.5055C37.3414 10.9033 37.271 11.209 37.271 11.3266H36.5205C36.5205 11.2561 36.7081 10.7152 37.1068 9.7039C37.5055 8.69266 37.6932 8.12825 37.6932 8.03418H38.6547C38.6547 8.12825 38.8424 8.66914 39.1942 9.68038C39.5225 10.6917 39.7101 11.2326 39.7101 11.3266ZM38.5375 9.89204C38.256 9.0219 38.1153 8.55156 38.1153 8.48101H38.0684C38.0684 8.55156 37.9277 9.0219 37.6228 9.89204H38.5375Z" fill="#F9FAFA"/>
<path d="M42.9471 11.3264H42.3139C42.3139 11.2559 42.0793 10.9031 41.6103 10.2211C41.1178 9.5156 40.8598 9.04526 40.7894 8.78657H40.7425C40.7894 9.16284 40.8129 9.49208 40.8129 9.79781C40.8129 10.2211 40.8129 10.715 40.8598 11.3264H40.25C40.2735 10.809 40.2969 10.2211 40.2969 9.60967C40.2969 8.99822 40.2735 8.48084 40.25 8.03402H41.0005C41.0005 8.12809 41.2116 8.48084 41.6337 9.09229C42.0793 9.75077 42.3373 10.1976 42.3842 10.4328H42.4311C42.3842 10.0565 42.3608 9.72725 42.3608 9.42153C42.3608 8.9747 42.3373 8.50436 42.3139 8.0105H42.9471C42.9236 8.43381 42.9002 8.95118 42.9002 9.58615C42.9237 10.2211 42.9236 10.809 42.9471 11.3264Z" fill="#F9FAFA"/>
<path d="M46.6054 9.5628C46.6054 10.0332 46.4412 10.4565 46.1363 10.8092C45.8314 11.162 45.4093 11.3501 44.8464 11.3501C44.5884 11.3501 44.2601 11.3501 43.8145 11.3266C43.8379 10.8092 43.8379 10.2448 43.8379 9.60983C43.8379 8.99838 43.8379 8.48101 43.8145 8.03418H44.2601C44.3304 8.03418 44.4477 8.03418 44.5884 8.03418C44.7291 8.03418 44.8229 8.03418 44.8698 8.03418C45.4796 8.03418 45.9252 8.17528 46.1832 8.48101C46.4646 8.76321 46.6054 9.13949 46.6054 9.5628ZM45.9018 9.68038C45.9018 9.35114 45.808 9.09245 45.6203 8.85728C45.4327 8.64563 45.1513 8.52804 44.7526 8.52804C44.6822 8.52804 44.5884 8.52804 44.4477 8.55156C44.4711 8.8808 44.4711 9.23356 44.4711 9.60983C44.4711 10.0097 44.4711 10.4095 44.4946 10.8092C44.6119 10.8328 44.7057 10.8328 44.8229 10.8328C45.1747 10.8328 45.4562 10.7152 45.6203 10.5035C45.8314 10.2684 45.9018 9.98611 45.9018 9.68038Z" fill="#F9FAFA"/>
<path d="M49.9588 11.3266H49.2083C49.0207 10.7387 48.8565 10.3624 48.7627 10.2213C48.6689 10.0802 48.4812 10.0097 48.2702 10.0097C48.1764 10.0097 48.0825 10.0097 47.9887 10.0097C47.9887 10.433 47.9887 10.8798 48.0122 11.3266H47.3086C47.332 10.8092 47.332 10.2448 47.332 9.60983C47.332 8.99838 47.332 8.48101 47.3086 8.03418H47.7542C47.8011 8.03418 47.9184 8.03418 48.0591 8.03418C48.2233 8.03418 48.364 8.03418 48.5047 8.03418C49.2787 8.03418 49.6539 8.29287 49.6539 8.83376C49.6539 9.25707 49.4428 9.53928 48.9972 9.7039V9.75093C49.1614 9.79797 49.3256 9.93907 49.4428 10.1508C49.5835 10.3389 49.7477 10.7387 49.9588 11.3266ZM49.0207 8.99838C49.0207 8.66914 48.8096 8.50452 48.364 8.50452C48.1998 8.50452 48.0591 8.50452 47.9418 8.55156C47.9653 8.81025 47.9653 9.16301 47.9653 9.5628C48.0591 9.5628 48.1295 9.5628 48.1998 9.5628C48.7627 9.5628 49.0207 9.37466 49.0207 8.99838Z" fill="#F9FAFA"/>
<path d="M53.5705 9.60966C53.5705 10.1271 53.4063 10.5504 53.1014 10.9031C52.7965 11.2324 52.3978 11.4205 51.9288 11.4205C51.4832 11.4205 51.1079 11.2559 50.8265 10.9502C50.5216 10.6445 50.3809 10.2447 50.3809 9.75076C50.3809 9.23338 50.545 8.81008 50.8499 8.45732C51.1548 8.12808 51.5535 7.93994 52.0226 7.93994C52.4682 7.93994 52.8434 8.10456 53.1249 8.41028C53.4298 8.73952 53.5705 9.13932 53.5705 9.60966ZM52.8903 9.68021C52.8903 9.32746 52.7965 9.04525 52.6324 8.83359C52.4447 8.62194 52.2337 8.50435 51.9757 8.50435C51.7411 8.50435 51.5301 8.62194 51.3424 8.83359C51.1783 9.04525 51.0845 9.32746 51.0845 9.68021C51.0845 10.033 51.1783 10.3152 51.3659 10.5269C51.5535 10.7385 51.7646 10.8561 52.0226 10.8561C52.2571 10.8561 52.4682 10.7385 52.6558 10.5269C52.7965 10.2917 52.8903 10.033 52.8903 9.68021Z" fill="#F9FAFA"/>
<path d="M55.0014 11.3266H54.2979C54.3213 10.8092 54.3213 10.2213 54.3213 9.60983C54.3213 8.99838 54.3213 8.48101 54.2979 8.03418H55.0014C54.978 8.45749 54.978 8.97487 54.978 9.60983C54.978 10.2448 54.978 10.8092 55.0014 11.3266Z" fill="#F9FAFA"/>
<path d="M58.6601 9.5628C58.6601 10.0332 58.4959 10.4565 58.191 10.8092C57.8861 11.162 57.4639 11.3501 56.9011 11.3501C56.6431 11.3501 56.3147 11.3501 55.8691 11.3266C55.8926 10.8092 55.8926 10.2448 55.8926 9.60983C55.8926 8.99838 55.8926 8.48101 55.8691 8.03418H56.3147C56.3851 8.03418 56.5024 8.03418 56.6431 8.03418C56.7838 8.03418 56.8776 8.03418 56.9245 8.03418C57.5343 8.03418 57.9799 8.17528 58.2379 8.48101C58.5193 8.76321 58.6601 9.13949 58.6601 9.5628ZM57.9565 9.68038C57.9565 9.35114 57.8627 9.09245 57.675 8.85728C57.4874 8.64563 57.206 8.52804 56.8073 8.52804C56.7369 8.52804 56.6431 8.52804 56.5024 8.55156C56.5258 8.8808 56.5258 9.23356 56.5258 9.60983C56.5258 10.0097 56.5258 10.4095 56.5493 10.8092C56.6665 10.8328 56.7604 10.8328 56.8776 10.8328C57.2294 10.8328 57.5109 10.7152 57.675 10.5035C57.8861 10.2684 57.9565 9.98611 57.9565 9.68038Z" fill="#F9FAFA"/>
<path d="M63.4914 11.3266H62.694C62.694 11.209 62.6236 10.9033 62.4594 10.3859H61.2868C61.1226 10.9033 61.0523 11.209 61.0523 11.3266H60.3018C60.3018 11.2561 60.4894 10.7152 60.8881 9.7039C61.2868 8.69266 61.4744 8.12825 61.4744 8.03418H62.436C62.436 8.12825 62.6236 8.66914 62.9754 9.68038C63.3272 10.6917 63.4914 11.2326 63.4914 11.3266ZM62.3422 9.89204C62.0607 9.0219 61.92 8.55156 61.92 8.48101H61.8731C61.8731 8.55156 61.7324 9.0219 61.4275 9.89204H62.3422Z" fill="#F9FAFA"/>
<path d="M66.4459 8.88063C66.4459 9.28043 66.3052 9.58615 66.0003 9.77429C65.6954 9.96242 65.3436 10.0565 64.898 10.0565C64.8277 10.0565 64.7573 10.0565 64.7339 10.0565C64.7339 10.3622 64.7338 10.7855 64.7573 11.3029H64.0537C64.0772 10.809 64.0772 10.2446 64.0772 9.58615C64.0772 8.9747 64.0772 8.45732 64.0537 8.0105H64.4993C64.5697 8.0105 64.6869 8.0105 64.8511 8.0105C65.0387 8.0105 65.1795 8.0105 65.3202 8.0105C65.6485 8.0105 65.9065 8.08105 66.1176 8.22215C66.3287 8.38677 66.4459 8.59843 66.4459 8.88063ZM65.7892 9.02174C65.7892 8.66898 65.5547 8.48084 65.0622 8.48084C64.9449 8.48084 64.8277 8.50436 64.6869 8.52788C64.7104 8.85712 64.7104 9.20988 64.7104 9.60967C64.7573 9.60967 64.8042 9.60967 64.8511 9.60967C65.4844 9.60967 65.7892 9.42153 65.7892 9.02174Z" fill="#F9FAFA"/>
<path d="M69.4488 8.88063C69.4488 9.28043 69.3081 9.58615 69.0032 9.77429C68.6984 9.96242 68.3466 10.0565 67.901 10.0565C67.8306 10.0565 67.7602 10.0565 67.7368 10.0565C67.7368 10.3622 67.7368 10.7855 67.7602 11.3029H67.0566C67.0801 10.809 67.0801 10.2446 67.0801 9.58615C67.0801 8.9747 67.0801 8.45732 67.0566 8.0105H67.5022C67.5726 8.0105 67.6899 8.0105 67.854 8.0105C68.0417 8.0105 68.1824 8.0105 68.3231 8.0105C68.6514 8.0105 68.9094 8.08105 69.1205 8.22215C69.355 8.38677 69.4488 8.59843 69.4488 8.88063ZM68.8156 9.02174C68.8156 8.66898 68.5811 8.48084 68.0886 8.48084C67.9713 8.48084 67.854 8.50436 67.7133 8.52788C67.7368 8.85712 67.7368 9.20988 67.7368 9.60967C67.7837 9.60967 67.8306 9.60967 67.8775 9.60967C68.5107 9.60967 68.8156 9.42153 68.8156 9.02174Z" fill="#F9FAFA"/>
<path d="M74.3976 9.60966C74.3976 10.1271 74.2335 10.5504 73.9286 10.9031C73.6237 11.2559 73.225 11.4205 72.7559 11.4205C72.3103 11.4205 71.9351 11.2559 71.6536 10.9502C71.3487 10.6445 71.208 10.2447 71.208 9.75076C71.208 9.23338 71.3722 8.81008 71.6771 8.45732C71.982 8.12808 72.3807 7.93994 72.8497 7.93994C73.2953 7.93994 73.6706 8.10456 73.952 8.41028C74.2569 8.73952 74.3976 9.13932 74.3976 9.60966ZM73.694 9.68021C73.694 9.32746 73.6002 9.04525 73.436 8.83359C73.2484 8.62194 73.0373 8.50435 72.7794 8.50435C72.5448 8.50435 72.3338 8.62194 72.1461 8.83359C71.982 9.04525 71.8881 9.32746 71.8881 9.68021C71.8881 10.033 71.982 10.3152 72.1696 10.5269C72.3572 10.7385 72.5683 10.8561 72.8263 10.8561C73.0608 10.8561 73.2719 10.7385 73.4595 10.5269C73.6237 10.2917 73.694 10.033 73.694 9.68021Z" fill="#F9FAFA"/>
<path d="M77.8211 11.3264H77.1879C77.1879 11.2559 76.9534 10.9031 76.4843 10.2211C75.9918 9.5156 75.7338 9.04526 75.6634 8.78657H75.6165C75.6634 9.16284 75.6869 9.49208 75.6869 9.79781C75.6869 10.2211 75.6869 10.715 75.7338 11.3264H75.124C75.1475 10.809 75.1709 10.2211 75.1709 9.60967C75.1709 8.99822 75.1475 8.48084 75.124 8.03402H75.8745C75.8745 8.12809 76.0856 8.48084 76.5078 9.09229C76.9534 9.75077 77.2113 10.1976 77.2583 10.4328H77.3052C77.2582 10.0565 77.2348 9.72725 77.2348 9.42153C77.2348 8.9747 77.2348 8.50436 77.1879 8.0105H77.8211C77.7977 8.43381 77.7742 8.95118 77.7742 9.58615C77.7742 10.2211 77.7977 10.809 77.8211 11.3264Z" fill="#F9FAFA"/>
<defs>
<linearGradient id="paint0_linear" x1="15.7716" y1="7.60218" x2="15.7716" y2="34.2478" gradientUnits="userSpaceOnUse">
<stop stop-color="#5D7FAF"/>
<stop offset="0.2863" stop-color="#6C93B2"/>
<stop offset="0.767" stop-color="#8CB9B8"/>
<stop offset="1" stop-color="#9CCCB9"/>
</linearGradient>
<linearGradient id="paint1_linear" x1="9.07182" y1="14.2149" x2="26.0705" y2="14.2149" gradientUnits="userSpaceOnUse">
<stop stop-color="#81C0A9"/>
<stop offset="1" stop-color="#DFE798"/>
</linearGradient>
<linearGradient id="paint2_linear" x1="17.571" y1="20.9248" x2="17.571" y2="34.3443" gradientUnits="userSpaceOnUse">
<stop stop-color="#D25951"/>
<stop offset="0.1668" stop-color="#C05E61"/>
<stop offset="0.5748" stop-color="#9A6385"/>
<stop offset="0.8619" stop-color="#84639C"/>
<stop offset="1" stop-color="#7E64A6"/>
</linearGradient>
<linearGradient id="paint3_linear" x1="27.3615" y1="17.3465" x2="27.3615" y2="24.5031" gradientUnits="userSpaceOnUse">
<stop stop-color="#DF847A"/>
<stop offset="0.1194" stop-color="#E08A7A"/>
<stop offset="0.7128" stop-color="#EBB078"/>
<stop offset="1" stop-color="#F1C178"/>
</linearGradient>
</defs>
</svg>
