<svg width="120" height="40" viewBox="0 0 120 40" fill="none" xmlns="http://www.w3.org/2000/svg">
<path d="M114 0H6C2.68629 0 0 2.68629 0 6V34C0 37.3137 2.68629 40 6 40H114C117.314 40 120 37.3137 120 34V6C120 2.68629 117.314 0 114 0Z" fill="#242424"/>
<path d="M20.721 6.72998H10.9587C9.78536 6.72998 8.84668 7.67123 8.84668 8.84778V30.567C8.84668 31.7436 9.78536 32.6848 10.9587 32.6848H20.7444C21.9178 32.6848 22.8565 31.7436 22.8565 30.567V8.84778C22.8565 7.67123 21.8943 6.72998 20.721 6.72998ZM15.8398 31.1318C15.0654 31.1318 14.4318 30.4964 14.4318 29.7199C14.4318 28.9434 15.0654 28.308 15.8398 28.308C16.6143 28.308 17.2479 28.9434 17.2479 29.7199C17.2479 30.4964 16.6143 31.1318 15.8398 31.1318ZM21.1903 27.6021H10.4894V11.5774H21.1668V27.6021H21.1903Z" fill="white"/>
<path d="M30.8591 10.5888L30.2725 12.4007H29.498L31.4458 6.65918H32.3376L34.2853 12.4007H33.4874L32.8773 10.5888H30.8591ZM32.7365 10.0241L32.1733 8.37695C32.0559 8.00046 31.9621 7.67102 31.8917 7.34158H31.8682C31.7978 7.67102 31.7039 8.02399 31.5866 8.37695L31.0234 10.0476H32.7365V10.0241Z" fill="white"/>
<path d="M35.0596 8.28271L35.8575 10.5887C35.9983 10.9652 36.1156 11.3182 36.186 11.6476H36.2095C36.3034 11.3182 36.4207 10.9652 36.5615 10.5887L37.3594 8.28271H38.1338L36.5146 12.4006H35.8106L34.2383 8.28271H35.0596Z" fill="white"/>
<path d="M41.5832 11.4124C41.5832 11.7654 41.6066 12.1184 41.6536 12.4007H40.973L40.9026 11.8831H40.8792C40.668 12.2125 40.1986 12.4949 39.6119 12.4949C38.7906 12.4949 38.3447 11.9066 38.3447 11.3183C38.3447 10.33 39.2365 9.78874 40.8088 9.78874V9.69462C40.8088 9.36518 40.7149 8.72984 39.8701 8.75337C39.4711 8.75337 39.0722 8.87103 38.7906 9.05928L38.6263 8.56512C38.9549 8.35334 39.4711 8.21216 39.9874 8.21216C41.2546 8.21216 41.5597 9.08281 41.5597 9.9064V11.4124H41.5832ZM40.8557 10.2829C40.0344 10.2594 39.1191 10.4006 39.1191 11.2007C39.1191 11.6948 39.4477 11.9066 39.8231 11.9066C40.3629 11.9066 40.7149 11.5772 40.8322 11.2242C40.8557 11.1536 40.8557 11.0595 40.8557 10.9889V10.2829Z" fill="white"/>
<path d="M43.0856 7.52984C42.8039 7.52984 42.6162 7.31806 42.6162 7.03569C42.6162 6.77684 42.8039 6.56506 43.109 6.56506C43.3906 6.56506 43.5784 6.77684 43.5784 7.03569C43.5784 7.29453 43.3906 7.52984 43.0856 7.52984ZM42.7335 12.4008V8.28284H43.4845V12.4008H42.7335Z" fill="white"/>
<path d="M44.6807 6.35352H45.4316V12.4011H44.6807V6.35352Z" fill="white"/>
<path d="M49.5158 11.4124C49.5158 11.7654 49.5393 12.1184 49.5862 12.4007H48.9056L48.8352 11.8831H48.8118C48.6006 12.2125 48.1312 12.4949 47.5446 12.4949C46.7232 12.4949 46.2773 11.9066 46.2773 11.3183C46.2773 10.33 47.1691 9.78874 48.7414 9.78874V9.69462C48.7414 9.36518 48.6475 8.72984 47.8027 8.75337C47.4038 8.75337 47.0048 8.87103 46.7232 9.05928L46.5589 8.56512C46.8875 8.35334 47.4038 8.21216 47.92 8.21216C49.1872 8.21216 49.4923 9.08281 49.4923 9.9064V11.4124H49.5158ZM48.7883 10.2829C47.967 10.2594 47.0518 10.4006 47.0518 11.2007C47.0518 11.6948 47.3803 11.9066 47.7558 11.9066C48.2955 11.9066 48.6475 11.5772 48.7648 11.2242C48.7883 11.1536 48.7883 11.0595 48.7883 10.9889V10.2829Z" fill="white"/>
<path d="M50.6651 6.35352H51.416V8.94194H51.4395C51.6976 8.47132 52.167 8.18894 52.8475 8.18894C53.8566 8.18894 54.5841 9.03607 54.5841 10.2833C54.5841 11.7657 53.6454 12.4952 52.7302 12.4952C52.1435 12.4952 51.6741 12.2599 51.3456 11.7187H51.3221L51.2752 12.4011H50.6416C50.6651 12.1187 50.6651 11.6951 50.6651 11.3422V6.35352ZM51.416 10.7539C51.416 10.848 51.416 10.9421 51.4395 11.0363C51.5803 11.5539 52.0262 11.9069 52.5659 11.9069C53.3638 11.9069 53.8096 11.2716 53.8096 10.3303C53.8096 9.50669 53.3872 8.80075 52.5894 8.80075C52.0731 8.80075 51.6037 9.15372 51.4629 9.71847C51.4395 9.81259 51.416 9.90672 51.416 10.0244V10.7539Z" fill="white"/>
<path d="M55.4521 6.35352H56.2031V12.4011H55.4521V6.35352Z" fill="white"/>
<path d="M57.8232 10.4715C57.8466 11.4833 58.4803 11.9069 59.2312 11.9069C59.7709 11.9069 60.0995 11.8127 60.3576 11.6951L60.4984 12.2128C60.2403 12.3304 59.7709 12.4716 59.1139 12.4716C57.8466 12.4716 57.0957 11.6245 57.0957 10.4009C57.0957 9.15371 57.8232 8.16541 59.0435 8.16541C60.3811 8.16541 60.7331 9.34196 60.7331 10.095C60.7331 10.2597 60.7331 10.3773 60.7096 10.4479L57.8232 10.4715ZM60.0056 9.93023C60.0056 9.45961 59.8179 8.70662 58.9731 8.70662C58.1987 8.70662 57.8936 9.41255 57.8232 9.93023H60.0056Z" fill="white"/>
<path d="M65.0503 12.4952C63.9474 12.4952 63.0791 11.6716 63.0791 10.3774C63.0791 8.98903 63.9943 8.18896 65.1207 8.18896C66.2941 8.18896 67.092 9.05962 67.092 10.3068C67.092 11.8363 66.0359 12.4952 65.0503 12.4952ZM65.0738 11.9304C65.7778 11.9304 66.3175 11.248 66.3175 10.3303C66.3175 9.62438 65.9655 8.75371 65.0973 8.75371C64.229 8.75371 63.83 9.5773 63.83 10.3538C63.83 11.248 64.3463 11.9304 65.0738 11.9304Z" fill="white"/>
<path d="M67.9844 9.38905C67.9844 8.96549 67.9844 8.61253 67.9375 8.28309H68.5946L68.6415 8.9655H68.665C68.8762 8.589 69.3455 8.18896 70.0261 8.18896C70.5893 8.18896 71.481 8.5184 71.481 9.9538V12.4246H70.7301V10.0479C70.7301 9.38906 70.4954 8.82432 69.7679 8.82432C69.2751 8.82432 68.8996 9.17727 68.7588 9.60083C68.7354 9.69496 68.7119 9.83614 68.7119 9.9538V12.4481H67.961V9.38905H67.9844Z" fill="white"/>
<path d="M75.3289 7.29468V8.28299H76.4083V8.84773H75.3289V11.0596C75.3289 11.5773 75.4697 11.8597 75.8921 11.8597C76.1033 11.8597 76.2206 11.8362 76.3145 11.8126L76.3379 12.3774C76.1971 12.4244 75.9625 12.4715 75.6809 12.4715C75.3289 12.4715 75.0473 12.3538 74.883 12.1656C74.6718 11.9303 74.6014 11.5773 74.6014 11.0832V8.82421H73.9678V8.25946H74.6014V7.50646L75.3289 7.29468Z" fill="white"/>
<path d="M77.1836 6.35352H77.9345V8.91841H77.958C78.0753 8.70663 78.2631 8.51838 78.4977 8.40073C78.7089 8.25954 78.9905 8.18894 79.2722 8.18894C79.8119 8.18894 80.7036 8.51838 80.7036 9.95378V12.4011H79.9527V10.0244C79.9527 9.34197 79.6946 8.80075 78.9906 8.80075C78.4977 8.80075 78.1223 9.13019 77.9815 9.55375C77.9345 9.64788 77.9345 9.76553 77.9345 9.90672V12.4011H77.1836V6.35352Z" fill="white"/>
<path d="M82.2753 10.4715C82.2988 11.4833 82.9324 11.9069 83.6833 11.9069C84.2231 11.9069 84.5516 11.8127 84.8332 11.6951L84.974 12.2128C84.7159 12.3304 84.2465 12.4716 83.5895 12.4716C82.3222 12.4716 81.5713 11.6245 81.5713 10.4009C81.5713 9.15371 82.2988 8.16541 83.4956 8.16541C84.8332 8.16541 85.1852 9.34196 85.1852 10.095C85.1852 10.2597 85.1852 10.3773 85.1617 10.4479L82.2753 10.4715ZM84.4577 9.93023C84.4577 9.45961 84.27 8.70662 83.4252 8.70662C82.6508 8.70662 82.3457 9.41255 82.2753 9.93023H84.4577Z" fill="white"/>
<path d="M88.1891 7.52984C87.9075 7.52984 87.7197 7.31806 87.7197 7.03569C87.7197 6.77684 87.9075 6.56506 88.2125 6.56506C88.4941 6.56506 88.6819 6.77684 88.6819 7.03569C88.6819 7.29453 88.4941 7.52984 88.1891 7.52984ZM87.8136 12.4008V8.28284H88.5645V12.4008H87.8136Z" fill="white"/>
<path d="M89.7842 6.72996C90.1362 6.65937 90.6055 6.6123 91.1922 6.6123C91.9197 6.6123 92.4594 6.77702 92.788 7.08293C93.093 7.3653 93.3042 7.76533 93.3042 8.28302C93.3042 8.8007 93.14 9.20074 92.8584 9.50665C92.4594 9.93021 91.8258 10.142 91.0983 10.142C90.8871 10.142 90.6759 10.142 90.5117 10.095V12.401H89.7842V6.72996ZM90.5351 9.4831C90.6994 9.53017 90.9106 9.55371 91.1453 9.55371C92.037 9.55371 92.5768 9.10661 92.5768 8.33008C92.5768 7.55355 92.037 7.20058 91.2157 7.20058C90.8871 7.20058 90.6525 7.22411 90.5117 7.27118V9.4831H90.5351Z" fill="white"/>
<path d="M94.1963 6.35352H94.9472V8.91841H94.9707C95.088 8.70663 95.2758 8.51838 95.5104 8.40073C95.7216 8.25954 96.0032 8.18894 96.2848 8.18894C96.8481 8.18894 97.7163 8.51838 97.7163 9.95378V12.4011H96.9654V10.0244C96.9654 9.34197 96.7073 8.80075 96.0032 8.80075C95.5104 8.80075 95.135 9.13019 94.9942 9.55375C94.9472 9.64788 94.9472 9.76553 94.9472 9.90672V12.4011H94.1963V6.35352Z" fill="white"/>
<path d="M100.533 12.4952C99.4298 12.4952 98.5615 11.6716 98.5615 10.3774C98.5615 8.98903 99.4767 8.18896 100.603 8.18896C101.777 8.18896 102.574 9.05962 102.574 10.3068C102.598 11.8363 101.518 12.4952 100.533 12.4952ZM100.556 11.9304C101.26 11.9304 101.8 11.248 101.8 10.3303C101.8 9.62438 101.448 8.75371 100.58 8.75371C99.7114 8.75371 99.3125 9.5773 99.3125 10.3538C99.3359 11.248 99.8287 11.9304 100.556 11.9304Z" fill="white"/>
<path d="M103.489 9.38905C103.489 8.96549 103.489 8.61253 103.466 8.28309H104.123L104.17 8.9655H104.193C104.404 8.589 104.874 8.18896 105.554 8.18896C106.118 8.18896 107.009 8.5184 107.009 9.9538V12.4246H106.258V10.0479C106.258 9.38906 106 8.82432 105.296 8.82432C104.803 8.82432 104.428 9.17727 104.287 9.60083C104.264 9.69496 104.24 9.83614 104.24 9.9538V12.4481H103.489V9.38905Z" fill="white"/>
<path d="M108.582 10.4715C108.605 11.4833 109.239 11.9069 109.99 11.9069C110.53 11.9069 110.858 11.8127 111.116 11.6951L111.257 12.2128C110.999 12.3304 110.53 12.4716 109.873 12.4716C108.605 12.4716 107.854 11.6245 107.854 10.4009C107.854 9.15371 108.582 8.16541 109.779 8.16541C111.116 8.16541 111.468 9.34196 111.468 10.095C111.468 10.2597 111.468 10.3773 111.445 10.4479L108.582 10.4715ZM110.764 9.93023C110.764 9.45961 110.577 8.70662 109.732 8.70662C108.957 8.70662 108.652 9.41255 108.582 9.93023H110.764Z" fill="white"/>
<path d="M34.3804 16.2836L29.335 31.1318H31.6347L33.1366 26.5667H38.0177L39.5666 31.1318H41.9367L36.8913 16.2836H34.3804ZM35.5772 18.7309C35.7414 19.3897 35.9292 20.0721 36.1639 20.8251L37.5249 24.7548H33.6529L34.9905 20.7781C35.2017 20.1427 35.3894 19.4603 35.5772 18.7309Z" fill="white"/>
<path d="M48.4613 20.1428C46.9359 20.1428 45.7156 20.7311 44.8943 21.8606L44.8004 20.3782H42.7588L42.7823 20.5664C42.8527 21.4841 42.8761 22.496 42.8761 23.9549V35.391H45.129V30.0495C45.833 30.873 46.9359 31.3672 48.2031 31.3672C49.5173 31.3672 50.7141 30.8495 51.6058 29.9083C52.5915 28.8729 53.1077 27.3669 53.1077 25.5785C53.1077 24.002 52.6619 22.6371 51.7936 21.6253C50.9253 20.6841 49.752 20.1428 48.4613 20.1428ZM47.8981 22.0018C49.8928 22.0018 50.7845 23.8608 50.7845 25.6962C50.7845 28.0728 49.6346 29.5318 47.8042 29.5318C46.5604 29.5318 45.4575 28.6847 45.1524 27.4375C45.1055 27.2493 45.082 26.9904 45.082 26.708V24.8961C45.082 24.7314 45.129 24.5432 45.1524 24.3314C45.1524 24.2608 45.1759 24.2137 45.1759 24.1431C45.5279 22.896 46.6308 22.0018 47.8981 22.0018Z" fill="white"/>
<path d="M60.0062 20.1428C58.4808 20.1428 57.2606 20.7311 56.4392 21.8606L56.3453 20.3782H54.3037V20.5664C54.3741 21.4841 54.3976 22.496 54.3976 23.9549V35.391H56.6504V30.0495C57.3544 30.873 58.4574 31.3672 59.7246 31.3672C61.0387 31.3672 62.2355 30.8495 63.1273 29.9083C64.1129 28.8729 64.6292 27.3669 64.6292 25.5785C64.6292 24.002 64.1833 22.6371 63.315 21.6253C62.4702 20.6841 61.2969 20.1428 60.0062 20.1428ZM59.443 22.0018C61.4377 22.0018 62.3294 23.8608 62.3294 25.6962C62.3294 28.0728 61.1795 29.5318 59.3491 29.5318C58.1054 29.5318 57.0024 28.6847 56.6973 27.4375C56.6504 27.2493 56.6269 26.9904 56.6269 26.708V24.8961C56.6269 24.7314 56.6739 24.5432 56.6973 24.3314C56.6973 24.2608 56.7208 24.2137 56.7208 24.1431C57.0728 22.896 58.1758 22.0018 59.443 22.0018Z" fill="white"/>
<path d="M74.4627 22.5899C72.3742 21.7664 71.6936 21.131 71.6936 19.9544C71.6936 18.9661 72.4915 17.9543 74.2515 17.9543C75.7065 17.9543 76.6452 18.472 76.8798 18.6132L77.0676 18.7308L77.7012 16.8483L77.5839 16.7777C77.2084 16.566 76.1289 16.0483 74.3219 16.0483C71.459 16.0483 69.4643 17.7425 69.4643 20.1662C69.4643 22.1193 70.708 23.4841 73.4067 24.4724C75.3076 25.1784 76.0116 25.9078 76.0116 27.1785C76.0116 28.5904 74.9086 29.4846 73.1721 29.4846C72.0222 29.4846 70.8488 29.1551 69.9336 28.5669L69.7459 28.4492L69.1357 30.3788L69.2531 30.4493C70.0979 31.0141 71.6936 31.4377 73.0313 31.4377C76.8798 31.4377 78.2409 29.0845 78.2409 27.0609C78.2409 24.9195 77.1614 23.6488 74.4627 22.5899Z" fill="white"/>
<path d="M82.2763 17.8131L80.0704 18.4955V20.3545H78.4512V22.1428H80.0704V27.6491C80.0704 28.9904 80.3285 29.9081 80.8448 30.4964C81.3376 31.0376 82.112 31.3435 83.0038 31.3435C83.8486 31.3435 84.4587 31.1788 84.7403 31.0847L84.8577 31.0376L84.7403 29.2492L84.5291 29.3198C84.2475 29.414 83.9659 29.4375 83.4966 29.4375C82.6283 29.4375 82.2528 28.8963 82.2528 27.6021V22.1664H84.9515V20.378H82.2528V17.8131H82.2763Z" fill="white"/>
<path d="M90.537 20.1428C87.3924 20.1428 85.21 22.496 85.21 25.8609C85.21 29.1317 87.322 31.3907 90.3727 31.3907H90.3962C92.9541 31.3907 95.7232 29.6024 95.7232 25.6727C95.7232 24.0725 95.2304 22.7077 94.2917 21.6959C93.353 20.6605 92.0623 20.1428 90.537 20.1428ZM90.4666 21.9077C92.4847 21.9077 93.3999 23.8843 93.3999 25.7197C93.3999 27.9787 92.1562 29.6024 90.4196 29.6024H90.3962C88.7065 29.6024 87.4628 28.0023 87.4628 25.7668C87.4863 23.8608 88.4015 21.9077 90.4666 21.9077Z" fill="white"/>
<path d="M102.575 20.237L102.435 20.2134C102.247 20.1664 102.083 20.1428 101.871 20.1428C100.698 20.1428 99.642 20.8252 99.0554 21.9547L98.985 20.3782H96.9668L96.9903 20.5664C97.0607 21.4606 97.0841 22.4489 97.0841 23.8137L97.0607 31.1554H99.3135V25.4374C99.3135 25.1315 99.337 24.8255 99.3839 24.5667C99.642 23.2019 100.557 22.3077 101.754 22.3077C101.989 22.3077 102.153 22.3312 102.364 22.3548L102.599 22.3783V20.237H102.575Z" fill="white"/>
<path d="M107.621 20.119C104.64 20.119 102.552 22.5192 102.552 25.9312C102.552 29.2256 104.617 31.3669 107.832 31.3669C109.521 31.3669 110.695 30.9904 111.375 30.6845L111.516 30.6139L111.094 28.9432L110.906 29.0138C110.296 29.2726 109.475 29.5079 108.09 29.5079C107.104 29.5079 104.875 29.1785 104.734 26.2371L111.962 26.2607L111.985 26.1195C112.032 25.8842 112.056 25.5782 112.056 25.1782C112.079 22.8486 110.906 20.119 107.621 20.119ZM107.48 21.8133C108.16 21.8133 108.724 22.025 109.123 22.4486C109.756 23.1075 109.873 24.0723 109.897 24.5429H104.781C104.992 23.2487 105.79 21.8133 107.48 21.8133Z" fill="white"/>
</svg>
